<svg style="position: absolute; width: 0; height: 0;" width="0" height="0" version="1.1" xmlns="http://www.w3.org/2000/svg" xmlns:xlink="http://www.w3.org/1999/xlink">
<defs>
<symbol id="icon-chevron-left" viewBox="0 0 21 28">
<title>chevron-left</title>
<path class="path1" d="M18.297 4.703l-8.297 8.297 8.297 8.297q0.297 0.297 0.297 0.703t-0.297 0.703l-2.594 2.594q-0.297 0.297-0.703 0.297t-0.703-0.297l-11.594-11.594q-0.297-0.297-0.297-0.703t0.297-0.703l11.594-11.594q0.297-0.297 0.703-0.297t0.703 0.297l2.594 2.594q0.297 0.297 0.297 0.703t-0.297 0.703z"></path>
</symbol>
<symbol id="icon-youtube" viewBox="0 0 24 28">
<title>youtube</title>
<path class="path1" d="M15.172 19.437v3.297q0 1.047-0.609 1.047-0.359 0-0.703-0.344v-4.703q0.344-0.344 0.703-0.344 0.609 0 0.609 1.047zM20.453 19.453v0.719h-1.406v-0.719q0-1.062 0.703-1.062t0.703 1.062zM5.359 16.047h1.672v-1.469h-4.875v1.469h1.641v8.891h1.563v-8.891zM9.859 24.938h1.391v-7.719h-1.391v5.906q-0.469 0.656-0.891 0.656-0.281 0-0.328-0.328-0.016-0.047-0.016-0.547v-5.688h-1.391v6.109q0 0.766 0.125 1.141 0.187 0.578 0.906 0.578 0.75 0 1.594-0.953v0.844zM16.562 22.625v-3.078q0-1.141-0.141-1.547-0.266-0.875-1.109-0.875-0.781 0-1.453 0.844v-3.391h-1.391v10.359h1.391v-0.75q0.703 0.859 1.453 0.859 0.844 0 1.109-0.859 0.141-0.422 0.141-1.563zM21.844 22.469v-0.203h-1.422q0 0.797-0.031 0.953-0.109 0.562-0.625 0.562-0.719 0-0.719-1.078v-1.359h2.797v-1.609q0-1.234-0.422-1.813-0.609-0.797-1.656-0.797-1.062 0-1.672 0.797-0.438 0.578-0.438 1.813v2.703q0 1.234 0.453 1.813 0.609 0.797 1.687 0.797 1.125 0 1.687-0.828 0.281-0.422 0.328-0.844 0.031-0.141 0.031-0.906zM12.344 8.203v-3.281q0-1.078-0.672-1.078t-0.672 1.078v3.281q0 1.094 0.672 1.094t0.672-1.094zM23.578 19.938q0 3.656-0.406 5.469-0.219 0.922-0.906 1.547t-1.594 0.719q-2.875 0.328-8.672 0.328t-8.672-0.328q-0.906-0.094-1.602-0.719t-0.898-1.547q-0.406-1.75-0.406-5.469 0-3.656 0.406-5.469 0.219-0.922 0.906-1.547t1.609-0.734q2.859-0.313 8.656-0.313t8.672 0.313q0.906 0.109 1.602 0.734t0.898 1.547q0.406 1.75 0.406 5.469zM7.984 0h1.594l-1.891 6.234v4.234h-1.563v-4.234q-0.219-1.156-0.953-3.313-0.578-1.609-1.016-2.922h1.656l1.109 4.109zM13.766 5.203v2.734q0 1.266-0.438 1.844-0.578 0.797-1.656 0.797-1.047 0-1.641-0.797-0.438-0.594-0.438-1.844v-2.734q0-1.25 0.438-1.828 0.594-0.797 1.641-0.797 1.078 0 1.656 0.797 0.438 0.578 0.438 1.828zM19 2.672v7.797h-1.422v-0.859q-0.828 0.969-1.609 0.969-0.719 0-0.922-0.578-0.125-0.375-0.125-1.172v-6.156h1.422v5.734q0 0.516 0.016 0.547 0.047 0.344 0.328 0.344 0.422 0 0.891-0.672v-5.953h1.422z"></path>
</symbol>
<symbol id="icon-instagram" viewBox="0 0 24 28">
<title>instagram</title>
<path class="path1" d="M21.281 22.281v-10.125h-2.109q0.313 0.984 0.313 2.047 0 1.969-1 3.633t-2.719 2.633-3.75 0.969q-3.078 0-5.266-2.117t-2.188-5.117q0-1.062 0.313-2.047h-2.203v10.125q0 0.406 0.273 0.68t0.68 0.273h16.703q0.391 0 0.672-0.273t0.281-0.68zM16.844 13.953q0-1.937-1.414-3.305t-3.414-1.367q-1.984 0-3.398 1.367t-1.414 3.305 1.414 3.305 3.398 1.367q2 0 3.414-1.367t1.414-3.305zM21.281 8.328v-2.578q0-0.438-0.313-0.758t-0.766-0.32h-2.719q-0.453 0-0.766 0.32t-0.313 0.758v2.578q0 0.453 0.313 0.766t0.766 0.313h2.719q0.453 0 0.766-0.313t0.313-0.766zM24 5.078v17.844q0 1.266-0.906 2.172t-2.172 0.906h-17.844q-1.266 0-2.172-0.906t-0.906-2.172v-17.844q0-1.266 0.906-2.172t2.172-0.906h17.844q1.266 0 2.172 0.906t0.906 2.172z"></path>
</symbol>
<symbol id="icon-vimeo-square" viewBox="0 0 24 28">
<title>vimeo-square</title>
<path class="path1" d="M20.188 9.969q0.156-3.375-2.516-3.469-3.609-0.125-4.875 4.078 0.688-0.297 1.281-0.297 1.328 0 1.156 1.5-0.063 0.891-1.156 2.609t-1.641 1.719q-0.672 0-1.281-2.641-0.203-0.844-0.703-3.984-0.469-2.953-2.5-2.766-0.922 0.109-2.562 1.563l-2.531 2.25 0.812 1.047q1.188-0.812 1.359-0.812 0.891 0 1.672 2.797 0.234 0.859 0.703 2.57t0.703 2.57q1.062 2.797 2.562 2.797 2.453 0 5.984-4.594 3.437-4.422 3.531-6.937zM24 6.5v15q0 1.859-1.32 3.18t-3.18 1.32h-15q-1.859 0-3.18-1.32t-1.32-3.18v-15q0-1.859 1.32-3.18t3.18-1.32h15q1.859 0 3.18 1.32t1.32 3.18z"></path>
</symbol>
<symbol id="icon-facebook-square" viewBox="0 0 24 28">
<title>facebook-square</title>
<path class="path1" d="M19.5 2q1.859 0 3.18 1.32t1.32 3.18v15q0 1.859-1.32 3.18t-3.18 1.32h-2.938v-9.297h3.109l0.469-3.625h-3.578v-2.312q0-0.875 0.367-1.313t1.43-0.438l1.906-0.016v-3.234q-0.984-0.141-2.781-0.141-2.125 0-3.398 1.25t-1.273 3.531v2.672h-3.125v3.625h3.125v9.297h-8.313q-1.859 0-3.18-1.32t-1.32-3.18v-15q0-1.859 1.32-3.18t3.18-1.32h15z"></path>
</symbol>
<symbol id="icon-twitter" viewBox="0 0 26 28">
<title>twitter</title>
<path class="path1" d="M25.312 6.375q-1.047 1.531-2.531 2.609 0.016 0.219 0.016 0.656 0 2.031-0.594 4.055t-1.805 3.883-2.883 3.289-4.031 2.281-5.047 0.852q-4.234 0-7.75-2.266 0.547 0.063 1.219 0.063 3.516 0 6.266-2.156-1.641-0.031-2.938-1.008t-1.781-2.492q0.516 0.078 0.953 0.078 0.672 0 1.328-0.172-1.75-0.359-2.898-1.742t-1.148-3.211v-0.063q1.062 0.594 2.281 0.641-1.031-0.688-1.641-1.797t-0.609-2.406q0-1.375 0.688-2.547 1.891 2.328 4.602 3.727t5.805 1.555q-0.125-0.594-0.125-1.156 0-2.094 1.477-3.57t3.57-1.477q2.188 0 3.687 1.594 1.703-0.328 3.203-1.219-0.578 1.797-2.219 2.781 1.453-0.156 2.906-0.781z"></path>
</symbol>
</defs>
</svg>
